<?xml version="1.0" encoding="UTF-8"?>
<svg id="Warstwa_1" xmlns="http://www.w3.org/2000/svg" xmlns:xlink="http://www.w3.org/1999/xlink" viewBox="0 0 62.09 58.33">
  <defs>
    <style>
      .cls-1 {
        fill: url(#Gradient_bez_nazwy_236-2);
        opacity: .35;
      }

      .cls-2 {
        stroke: #fff;
        stroke-width: .03px;
      }

      .cls-2, .cls-3, .cls-4, .cls-5, .cls-6, .cls-7, .cls-8 {
        fill: none;
        stroke-miterlimit: 10;
      }

      .cls-3 {
        stroke: url(#Gradient_bez_nazwy_292);
      }

      .cls-3, .cls-4, .cls-5, .cls-6 {
        stroke-width: 3.1px;
      }

      .cls-4 {
        stroke: url(#Gradient_bez_nazwy_254);
      }

      .cls-5 {
        stroke: url(#Gradient_bez_nazwy_301);
      }

      .cls-6 {
        stroke: url(#Gradient_bez_nazwy_277);
      }

      .cls-7 {
        stroke: url(#Gradient_bez_nazwy_444);
      }

      .cls-7, .cls-8 {
        stroke-width: 2.54px;
      }

      .cls-8 {
        stroke: url(#Gradient_bez_nazwy_430);
      }

      .cls-9 {
        fill: url(#Gradient_bez_nazwy_236);
        opacity: .33;
      }
    </style>
    <linearGradient id="Gradient_bez_nazwy_236" data-name="Gradient bez nazwy 236" x1="5.9" y1="38.85" x2="22.32" y2="22.42" gradientUnits="userSpaceOnUse">
      <stop offset="0" stop-color="#37099c"/>
      <stop offset=".47" stop-color="#ad33d0"/>
      <stop offset=".73" stop-color="#cc2a75"/>
      <stop offset=".97" stop-color="#fc7a76"/>
    </linearGradient>
    <linearGradient id="Gradient_bez_nazwy_236-2" data-name="Gradient bez nazwy 236" x1="39.99" y1="38.6" x2="56.69" y2="21.9" xlink:href="#Gradient_bez_nazwy_236"/>
    <linearGradient id="Gradient_bez_nazwy_430" data-name="Gradient bez nazwy 430" x1="-44.09" y1="83.34" x2="-44.09" y2="28.94" gradientTransform="translate(-25.14 4.16) rotate(-90)" gradientUnits="userSpaceOnUse">
      <stop offset="0" stop-color="#b6299b"/>
      <stop offset=".05" stop-color="#811da1"/>
      <stop offset=".09" stop-color="#6015a5"/>
      <stop offset=".11" stop-color="#5413a7"/>
      <stop offset=".17" stop-color="#490f95"/>
      <stop offset=".28" stop-color="#3a0a7b"/>
      <stop offset=".4" stop-color="#2f0667"/>
      <stop offset=".53" stop-color="#270459"/>
      <stop offset=".71" stop-color="#220251"/>
      <stop offset="1" stop-color="#21024f"/>
    </linearGradient>
    <linearGradient id="Gradient_bez_nazwy_444" data-name="Gradient bez nazwy 444" x1="48.01" y1="83.93" x2="48.01" y2="28.59" gradientTransform="translate(-25.14 -37.24) rotate(90) scale(1 -1)" gradientUnits="userSpaceOnUse">
      <stop offset="0" stop-color="#e66d5b"/>
      <stop offset=".01" stop-color="#ea7662"/>
      <stop offset=".04" stop-color="#f38a71"/>
      <stop offset=".07" stop-color="#fa987c"/>
      <stop offset=".11" stop-color="#fda083"/>
      <stop offset=".18" stop-color="#ffa385"/>
      <stop offset=".47" stop-color="#ff9e84"/>
      <stop offset=".53" stop-color="#f38771"/>
      <stop offset=".61" stop-color="#eb7764"/>
      <stop offset=".69" stop-color="#e66e5c"/>
      <stop offset=".81" stop-color="#e56b5a"/>
      <stop offset=".88" stop-color="#dc5d5b"/>
      <stop offset="1" stop-color="#cb4160"/>
    </linearGradient>
    <linearGradient id="Gradient_bez_nazwy_277" data-name="Gradient bez nazwy 277" x1="16.43" y1="34.54" x2="30.26" y2="34.54" gradientUnits="userSpaceOnUse">
      <stop offset="0" stop-color="#3f0c8f"/>
      <stop offset=".89" stop-color="#340789"/>
    </linearGradient>
    <linearGradient id="Gradient_bez_nazwy_292" data-name="Gradient bez nazwy 292" x1="16.76" y1="44.06" x2="29.22" y2="31.6" gradientUnits="userSpaceOnUse">
      <stop offset=".03" stop-color="#5714aa"/>
      <stop offset=".3" stop-color="#480ea3"/>
      <stop offset=".66" stop-color="#3b0a9d"/>
      <stop offset="1" stop-color="#37099c"/>
    </linearGradient>
    <linearGradient id="Gradient_bez_nazwy_254" data-name="Gradient bez nazwy 254" x1="17.32" y1="46.53" x2="51.2" y2="12.65" gradientUnits="userSpaceOnUse">
      <stop offset="0" stop-color="#310887"/>
      <stop offset=".05" stop-color="#36098a"/>
      <stop offset=".12" stop-color="#470f93"/>
      <stop offset=".2" stop-color="#6317a2"/>
      <stop offset=".29" stop-color="#8923b7"/>
      <stop offset=".37" stop-color="#b230ce"/>
      <stop offset=".48" stop-color="#b42bae"/>
      <stop offset=".73" stop-color="#b92269"/>
      <stop offset="1" stop-color="#ff8278"/>
    </linearGradient>
    <linearGradient id="Gradient_bez_nazwy_301" data-name="Gradient bez nazwy 301" x1="10.89" y1="46.53" x2="44.78" y2="12.64" gradientUnits="userSpaceOnUse">
      <stop offset=".03" stop-color="#37099c"/>
      <stop offset=".47" stop-color="#ad33d0"/>
      <stop offset=".73" stop-color="#cc2a75"/>
      <stop offset=".97" stop-color="#fc7a76"/>
    </linearGradient>
  </defs>
  <path class="cls-9" d="M19.49,19.59s-3.57-3.34-9.31-.75S2.12,28.1,2.54,30.85s3.74,9.85,6.07,10.1,9.37,2.92,10.67,1.33.47-2.73.47-2.73c0,0-4.57,1.48-5.82.31s-4.9-2.47-6.15-5.12-2.24-8.32-.42-9.4,5.83-5,7.9-4.84,4.24-.92,4.24-.92Z"/>
  <path class="cls-1" d="M42.35,18.92l4.9-1.17,5.98,1.34,5.49,4.84,1.83,4.92-.42,5.01-1.91,3.84-4.82,3.5-5.82.92-4.82-.75.08-1.57,5.32-.35s4.57-2.34,4.9-2.34,2.33-4.34,2.33-4.34l.66-4.59-1.5-3.92-3.66-2.42-5.57-1.42-3.32.75.34-2.25Z"/>
  <g>
    <path class="cls-8" d="M57,38.87c-3.88,10.62-14.04,18.19-25.95,18.19s-22.25-7.71-26.05-18.47"/>
    <path class="cls-7" d="M57.56,21.17C54.19,9.67,43.6,1.27,31.05,1.27S8.15,9.47,4.65,20.76"/>
    <g>
      <path class="cls-6" d="M16.54,39.01c2.18-.15,4.32-1.06,5.99-2.74l6.63-6.66"/>
      <path class="cls-3" d="M16.43,42.43c2.7-.41,5.2-1.67,7.17-3.65l6.39-6.41"/>
      <path class="cls-4" d="M31.03,27.72l7.48-7.33c2.44-2.44,5.68-3.79,9.12-3.79s6.69,1.35,9.13,3.8c2.44,2.45,3.78,5.7,3.78,9.17s-1.34,6.72-3.78,9.17c-2.44,2.45-5.68,3.8-9.13,3.8h0c-3.45,0-6.69-1.35-9.13-3.8l-9.23-9.21-6.74-6.58c-3.67-3.68-9.61-3.68-13.28,0-3.67,3.68-3.67,9.65,0,13.33,2,2.01,4.67,2.92,7.28,2.74"/>
      <path class="cls-5" d="M33.92,28.43l5.65-5.53c3.67-3.68,9.61-3.68,13.28,0,3.67,3.68,3.67,9.65,0,13.33-3.67,3.68-9.61,3.68-13.28,0l-6.72-6.74-9.26-9.06c-2.44-2.44-5.68-3.79-9.12-3.79s-6.69,1.35-9.13,3.8c-2.44,2.45-3.78,5.7-3.78,9.17s1.34,6.72,3.78,9.17c2.44,2.45,5.68,3.8,9.13,3.8h0c.66,0,1.32-.05,1.96-.15"/>
      <path class="cls-2" d="M18.24,18.87c2.3.76,3.65,2.16,3.65,2.16l16.56,16.12c1.37,1.33,3,2.37,4.8,2.99.32.11.66.21,1.01.31"/>
      <path class="cls-2" d="M28.82,31.26l-6.16,6.26c-.98,1-2.12,1.84-3.4,2.42-.39.18-.8.34-1.25.48"/>
      <path class="cls-2" d="M32.84,27.31l4.93-4.85c1.8-1.8,3.25-2.62,4.62-3.16.73-.29,1.43-.48,2.12-.61"/>
    </g>
  </g>
</svg>